<?xml version="1.0" standalone="no"?>
<!DOCTYPE svg PUBLIC "-//W3C//DTD SVG 20010904//EN"
 "http://www.w3.org/TR/2001/REC-SVG-20010904/DTD/svg10.dtd">
<svg version="1.0" xmlns="http://www.w3.org/2000/svg"
 width="64.000000pt" height="64.000000pt" viewBox="0 0 64.000000 64.000000"
 preserveAspectRatio="xMidYMid meet">

<g transform="translate(0.000000,64.000000) scale(0.100000,-0.100000)"
fill="#000000" stroke="none">
<path d="M216 604 c-71 -22 -159 -112 -180 -184 -34 -115 -12 -206 73 -291 85
-85 176 -107 291 -73 75 22 162 109 184 184 34 115 12 206 -73 291 -85 84
-180 108 -295 73z m226 -41 c92 -51 146 -155 135 -261 -15 -145 -149 -254
-295 -239 -145 15 -254 149 -239 295 11 102 92 201 191 232 57 17 150 5 208
-27z"/>
<path d="M215 536 c-27 -13 -60 -34 -72 -47 -34 -37 -63 -110 -63 -159 0 -65
56 -178 77 -156 4 3 -1 14 -10 24 -26 29 -47 88 -47 134 1 114 99 208 218 208
17 0 32 5 32 10 0 19 -85 10 -135 -14z"/>
<path d="M380 540 c0 -12 28 -25 36 -17 3 3 -4 10 -15 17 -15 7 -21 7 -21 0z"/>
<path d="M440 502 c0 -5 10 -17 21 -28 69 -61 76 -206 13 -275 -9 -10 -15 -22
-11 -25 21 -22 77 91 77 156 0 49 -29 122 -62 158 -22 23 -38 29 -38 14z"/>
<path d="M230 395 l-44 -45 46 -47 c26 -26 51 -44 54 -40 4 4 -8 23 -26 42
l-34 35 60 0 c50 0 64 -4 82 -23 12 -13 22 -35 22 -50 0 -15 5 -27 10 -27 23
0 10 62 -19 91 -26 26 -36 29 -92 29 l-63 0 32 33 c18 18 32 36 32 40 0 16
-18 4 -60 -38z"/>
<path d="M201 166 c-8 -9 -11 -19 -7 -23 9 -9 29 13 24 27 -2 8 -8 7 -17 -4z"/>
<path d="M400 168 c0 -18 18 -34 28 -24 3 4 -2 14 -11 23 -16 16 -17 16 -17 1z"/>
<path d="M250 134 c0 -8 5 -12 10 -9 6 3 10 10 10 16 0 5 -4 9 -10 9 -5 0 -10
-7 -10 -16z"/>
<path d="M300 130 c0 -11 5 -20 10 -20 6 0 10 9 10 20 0 11 -4 20 -10 20 -5 0
-10 -9 -10 -20z"/>
<path d="M350 141 c0 -6 5 -13 10 -16 6 -3 10 1 10 9 0 9 -4 16 -10 16 -5 0
-10 -4 -10 -9z"/>
</g>
</svg>
