<?xml version="1.0" standalone="no"?>
<!DOCTYPE svg PUBLIC "-//W3C//DTD SVG 20010904//EN"
 "http://www.w3.org/TR/2001/REC-SVG-20010904/DTD/svg10.dtd">
<svg version="1.0" xmlns="http://www.w3.org/2000/svg"
 width="24.000000pt" height="24.000000pt" viewBox="0 0 24.000000 24.000000"
 preserveAspectRatio="xMidYMid meet">

<g transform="translate(0.000000,24.000000) scale(0.100000,-0.100000)"
fill="#000000" stroke="none">
<path d="M88 189 c-19 -21 -28 -41 -28 -64 l0 -35 60 0 60 0 0 35 c0 25 -8 43
-30 65 -16 16 -31 30 -32 29 -2 0 -15 -14 -30 -30z"/>
<path d="M40 60 c0 -5 12 -10 26 -10 15 0 33 -8 40 -17 13 -17 15 -17 28 0 7
9 25 17 40 17 14 0 26 5 26 10 0 6 -33 10 -80 10 -47 0 -80 -4 -80 -10z"/>
</g>
</svg>
