<?xml version="1.0" standalone="no"?>
<!DOCTYPE svg PUBLIC "-//W3C//DTD SVG 20010904//EN"
 "http://www.w3.org/TR/2001/REC-SVG-20010904/DTD/svg10.dtd">
<svg version="1.0" xmlns="http://www.w3.org/2000/svg"
 width="24.000000pt" height="24.000000pt" viewBox="0 0 24.000000 24.000000"
 preserveAspectRatio="xMidYMid meet">

<g transform="translate(0.000000,24.000000) scale(0.100000,-0.100000)"
fill="#000000" stroke="none">
<path d="M88 189 c-21 -22 -28 -40 -28 -69 0 -21 -4 -42 -10 -45 -19 -12 -10
-25 16 -25 15 0 33 -8 40 -17 13 -17 15 -17 28 0 7 9 25 17 40 17 26 0 35 13
16 25 -5 3 -10 24 -10 45 0 30 -7 46 -30 70 -16 16 -31 30 -32 29 -2 0 -15
-14 -30 -30z m60 -21 c7 -7 12 -31 12 -55 l0 -43 -40 0 -40 0 0 43 c0 45 13
67 40 67 9 0 21 -5 28 -12z"/>
</g>
</svg>
